<svg width="200" height="200" viewBox="0 0 200 200" fill="none" xmlns="http://www.w3.org/2000/svg">
  <path d="M100 70C90 70 82 78 82 88V100C82 105 80 110 76 113L74 115C72 117 73 120 76 120H124C127 120 128 117 126 115L124 113C120 110 118 105 118 100V88C118 78 110 70 100 70Z" fill="#F3F4F6" stroke="#E5E7EB" stroke-width="2"/>
  <path d="M95 125C95 127.761 97.239 130 100 130C102.761 130 105 127.761 105 125" stroke="#9CA3AF" stroke-width="2" stroke-linecap="round"/>
  <text x="100" y="150" text-anchor="middle" fill="#6B7280" font-size="14">No notifications</text>
</svg>
